# xmcd
# 
# Track frame offsets:
#     150
#     16762
#     33935
#     49875
#     63482
#     79259
#     97970
#     118619
#     132161
#     146549
#     167832
# 
# Disc length: 2520
# 
# Revision: 0
# Processed by: cddbd v1.5.2PL0 Copyright (c) Steve Scherf et al.
# Submitted via: fre:ac v1.0.27
# 
DISCID=8c09d60b
DTITLE=Smoking Smoking - It's all about love
DYEAR=2012
DGENRE=
TTITLE0=Hold my hand
TTITLE1=It's all about love
TTITLE2=Young cowboy
TTITLE3=Are we lucky?
TTITLE4=Don't let me down
TTITLE5=Dancing
TTITLE6=In circles
TTITLE7=3-Step love
TTITLE8=Summer eleven
TTITLE9=Tightrope walker
TTITLE10=Tiny hope
EXTD=
EXTT0=
EXTT1=
EXTT2=
EXTT3=
EXTT4=
EXTT5=
EXTT6=
EXTT7=
EXTT8=
EXTT9=
EXTT10=
PLAYORDER=
